<?xml version="1.0" encoding="UTF-8"?>
<svg id="Layer_2" data-name="Layer 2" xmlns="http://www.w3.org/2000/svg" viewBox="0 0 33.8 33.8">
  <defs>
    <style>
      .cls-1 {
        fill: #fff;
        stroke-width: 0px;
      }
    </style>
  </defs>
  <g id="Body">
    <g>
      <path class="cls-1" d="M19.22,11.96H2.75c-.54,0-.86-.6-.57-1.05.05-.07.1-.15.15-.22.03-.04.06-.08.09-.11L11.56,1.43c1.91-1.91,5-1.91,6.9,0l13.9,13.9c1.91,1.91,1.91,5,0,6.9l-9.19,9.19s-.07.07-.11.09c-.06.04-.11.07-.17.11-.45.29-1.05-.04-1.05-.57V14.59c0-1.45-1.18-2.62-2.62-2.62Z"/>
      <path class="cls-1" d="M1.99,19.41h-.31v-4.25c0-.38.16-.72.42-.96h0c.24-.22.55-.35.89-.35h15.78c.73,0,1.32.59,1.31,1.31v15.78c0,.34-.13.66-.35.89h0c-.24.26-.58.42-.96.42h-4.25v-10.22c0-1.45-1.18-2.62-2.62-2.62H1.99Z"/>
      <path class="cls-1" d="M0,31.18v-10.22h11.53c.73,0,1.32.59,1.31,1.31v6.4s0,1.39,0,1.39v.4s0,3.34,0,3.34H2.62C1.17,33.8,0,32.63,0,31.18Z"/>
    </g>
  </g>
</svg>