<?xml version="1.0" encoding="UTF-8"?>
<svg id="Layer_2" data-name="Layer 2" xmlns="http://www.w3.org/2000/svg" viewBox="0 0 125.68 33.8">
  <defs>
    <style>
      .cls-1 {
        fill: #008980;
      }

      .cls-1, .cls-2 {
        stroke-width: 0px;
      }

      .cls-2 {
        fill: #fff;
      }
    </style>
  </defs>
  <g id="Body">
    <g>
      <g>
        <path class="cls-2" d="M42.38,8.14h2.6v7.47h.12l6.56-7.47h3.14l-7.18,7.89,7.89,9.26h-3.33l-7.08-8.45h-.12v8.45h-2.6V8.14Z"/>
        <path class="cls-2" d="M61.73,25.48c-.91,0-1.75-.15-2.5-.45-.75-.3-1.39-.72-1.92-1.26-.53-.54-.94-1.19-1.24-1.96-.29-.77-.44-1.62-.44-2.55v-.47c0-.96.15-1.84.44-2.62.29-.78.71-1.46,1.24-2.02.53-.56,1.17-1,1.92-1.31.75-.31,1.58-.47,2.47-.47h.22c.83,0,1.59.14,2.28.43.69.29,1.27.69,1.76,1.2.49.51.87,1.13,1.14,1.86.27.73.4,1.53.4,2.41v1.52h-9.41c.08,1.08.46,1.93,1.14,2.56.68.63,1.56.94,2.63.94h.25c.82,0,1.51-.17,2.08-.51.57-.34,1.04-.77,1.4-1.27l1.57,1.4c-.6.82-1.35,1.45-2.23,1.9-.88.45-1.86.67-2.94.67h-.27ZM65.18,17.91v-.02c-.05-1.05-.38-1.88-.98-2.5-.6-.62-1.38-.93-2.33-.93h-.25c-.96,0-1.75.31-2.36.92s-.98,1.46-1.11,2.54h7.03Z"/>
        <path class="cls-2" d="M75.62,25.48c-.91,0-1.75-.15-2.5-.45-.75-.3-1.39-.72-1.92-1.26-.53-.54-.94-1.19-1.24-1.96s-.44-1.62-.44-2.55v-.47c0-.96.15-1.84.44-2.62.29-.78.71-1.46,1.24-2.02.53-.56,1.17-1,1.92-1.31.75-.31,1.58-.47,2.47-.47h.22c.83,0,1.59.14,2.28.43.69.29,1.27.69,1.76,1.2.49.51.87,1.13,1.14,1.86.27.73.4,1.53.4,2.41v1.52h-9.41c.08,1.08.46,1.93,1.14,2.56.68.63,1.56.94,2.63.94h.25c.82,0,1.51-.17,2.08-.51.57-.34,1.04-.77,1.4-1.27l1.57,1.4c-.6.82-1.35,1.45-2.23,1.9-.88.45-1.86.67-2.94.67h-.27ZM79.07,17.91v-.02c-.05-1.05-.38-1.88-.98-2.5-.6-.62-1.38-.93-2.33-.93h-.25c-.96,0-1.75.31-2.36.92-.61.61-.98,1.46-1.11,2.54h7.03Z"/>
        <path class="cls-2" d="M84.26,12.55h1.91c.08.2.15.44.21.73.06.29.1.58.13.86.51-.55,1.11-.99,1.81-1.31s1.48-.48,2.33-.48h.22c.83,0,1.6.15,2.29.45.69.3,1.29.73,1.79,1.29.5.56.89,1.21,1.16,1.97.28.76.42,1.6.42,2.51v.69c0,.91-.14,1.75-.42,2.51-.28.76-.67,1.42-1.16,1.97-.5.56-1.09.98-1.79,1.29-.69.3-1.46.45-2.29.45h-.22c-.82,0-1.56-.14-2.23-.43-.67-.29-1.25-.69-1.74-1.21v6.34h-2.43V12.55h0ZM90.44,23.35c.54,0,1.02-.1,1.46-.29.43-.2.81-.48,1.13-.85.32-.37.56-.8.73-1.31.17-.51.26-1.07.26-1.69v-.61c0-.62-.09-1.18-.26-1.69-.17-.51-.42-.94-.73-1.3-.32-.36-.69-.64-1.13-.83-.43-.2-.92-.29-1.46-.29h-.2c-1.08,0-1.94.38-2.58,1.14-.65.76-.97,1.75-.97,2.98v.61c0,.62.09,1.18.26,1.69s.41.94.72,1.31c.31.37.68.65,1.11.85.43.2.92.29,1.46.29,0,0,.2,0,.2,0Z"/>
        <path class="cls-2" d="M108.84,12.51v2l-.12-.16c-.44-.58-1.04-1.07-1.78-1.46-.74-.39-1.62-.58-2.61-.58-1.1,0-2.11.27-3.02.82-.91.54-1.63,1.31-2.16,2.29-.53.98-.79,2.12-.79,3.38s.27,2.42.79,3.42c.53,1,1.25,1.79,2.15,2.35.9.56,1.9.84,2.99.84.98,0,1.86-.2,2.62-.6.76-.4,1.37-.9,1.81-1.49l.13-.17v2.05h2.4v-12.67h-2.4ZM108.29,21.19c-.37.67-.86,1.18-1.46,1.53-.6.35-1.25.52-1.94.52s-1.33-.18-1.93-.53c-.61-.35-1.1-.88-1.47-1.55-.37-.67-.55-1.47-.55-2.36s.19-1.67.56-2.33c.37-.65.86-1.15,1.46-1.49.6-.34,1.25-.51,1.94-.51s1.34.18,1.94.52c.6.35,1.09.86,1.46,1.52.18.33.32.69.42,1.08s.14.81.14,1.26c0,.89-.19,1.68-.55,2.35Z"/>
        <path class="cls-2" d="M125.68,12.24l-7.49,17.95h-2.61l2.48-5.94-4.81-12.01h2.81l3.43,9.31,3.57-9.31h2.61Z"/>
      </g>
      <g>
        <path class="cls-1" d="M19.22,11.96H2.75c-.54,0-.86-.6-.57-1.05.05-.07.1-.15.15-.22.03-.04.06-.08.09-.11L11.56,1.43c1.91-1.91,5-1.91,6.9,0l13.9,13.9c1.91,1.91,1.91,5,0,6.9l-9.19,9.19s-.07.07-.11.09c-.06.04-.11.07-.17.11-.45.29-1.05-.04-1.05-.57V14.59c0-1.45-1.18-2.62-2.62-2.62Z"/>
        <path class="cls-1" d="M1.99,19.41h-.31v-4.25c0-.38.16-.72.42-.96h0c.24-.22.55-.35.89-.35h15.78c.73,0,1.32.59,1.31,1.31v15.78c0,.34-.13.66-.35.89h0c-.24.26-.58.42-.96.42h-4.25v-10.22c0-1.45-1.18-2.62-2.62-2.62H1.99Z"/>
        <path class="cls-1" d="M0,31.18v-10.22h11.53c.73,0,1.32.59,1.31,1.31v6.4s0,1.39,0,1.39v.4s0,3.34,0,3.34H2.62C1.17,33.8,0,32.63,0,31.18Z"/>
      </g>
    </g>
  </g>
</svg>